<svg width="822" height="204" viewBox="0 0 822 204" fill="none" xmlns="http://www.w3.org/2000/svg">
<g clip-path="url(#clip0_228_13)">
<path d="M802.525 138.176H649.887C639.606 138.176 631.302 131.471 631.302 123.17V13.9742C631.302 6.63063 638.815 0.564209 647.91 0.564209H723.043C732.138 0.564209 739.256 6.31134 739.651 13.3356L742.024 22.2756H802.525C812.807 22.2756 821.111 28.9806 821.111 37.282V123.489C821.111 131.471 812.807 138.176 802.525 138.176ZM647.91 11.4199C646.328 11.4199 645.142 12.3778 645.142 13.6549V122.85C645.142 124.766 647.119 126.682 649.887 126.682H802.921C805.294 126.682 807.666 125.085 807.666 122.85V36.6434C807.666 34.7277 805.689 32.812 802.921 32.812H736.883C733.72 32.812 730.951 30.8963 730.161 28.342L726.206 14.932V13.6549C726.206 12.3778 725.02 11.4199 723.438 11.4199H647.91Z" fill="#D2EBFF"/>
<path d="M647.805 73.2517V116.443C647.805 120.481 650.439 122.061 654.302 122.061H717.157C721.722 122.061 724.18 125.222 724.18 129.611C724.18 133.825 721.722 137.336 717.157 137.336H649.21C636.744 137.336 631.302 131.893 631.302 118.55V19.5262C631.302 6.00699 636.744 0.564209 649.21 0.564209H715.577C720.142 0.564209 722.6 3.72453 722.6 8.11387C722.6 12.5032 720.142 15.8391 715.577 15.8391H653.775C649.561 15.8391 647.805 17.7704 647.805 21.9842V58.328H707.676C712.065 58.328 714.523 61.4883 714.523 65.8776C714.523 69.9158 711.89 73.2517 707.676 73.2517H647.805Z" fill="black"/>
<path d="M546.733 18.0838H506.877C502.488 18.0838 500.03 14.5723 500.03 10.5341C500.03 6.32034 502.488 2.6333 506.702 2.6333H603.443C607.657 2.6333 610.115 6.32034 610.115 10.5341C610.115 14.5723 607.481 18.0838 603.443 18.0838H563.588V133.26C563.588 138.001 559.901 140.459 555.16 140.459C550.42 140.459 546.733 138.001 546.733 133.26V18.0838Z" fill="black"/>
<path d="M419.328 99.3747L405.809 135.543C404.58 139.054 401.946 140.459 398.961 140.459C397.732 140.459 396.679 140.283 395.45 139.932C391.938 139.054 389.305 136.07 389.305 132.734C389.305 131.68 389.48 130.802 389.831 129.749L437.587 9.83206C439.87 3.86254 444.259 1.58008 449.702 1.58008C455.32 1.58008 459.885 3.86254 462.168 9.83206L509.924 130.1C510.451 131.154 510.626 132.031 510.626 133.085C510.626 136.596 507.817 139.23 504.306 140.108C503.252 140.459 502.199 140.635 501.145 140.635C497.985 140.635 495.176 139.054 493.947 135.718L480.076 99.3747H419.328ZM424.595 84.6265H474.809L455.32 33.5345C453.389 28.4429 451.458 22.8245 449.878 16.855C448.297 22.8245 446.542 28.4429 444.435 33.7101L424.595 84.6265Z" fill="black"/>
<path d="M371.971 119.741L376.36 130.1C376.711 131.153 376.887 132.031 376.887 133.085C376.887 136.42 374.604 139.054 371.093 139.932C369.864 140.283 368.459 140.459 367.23 140.459C364.246 140.459 361.612 139.054 360.383 135.894L355.994 124.657C343.352 90.4202 338.436 77.9544 320.879 77.9544H288.573V133.085C288.573 138.001 285.237 140.459 280.497 140.459C275.581 140.459 272.069 138.001 272.069 132.909V21.5953C272.069 8.07608 277.512 2.6333 289.978 2.6333H331.062C356.52 2.6333 370.566 16.1525 370.566 37.748C370.566 57.939 359.154 68.4735 342.826 71.9849C353.36 75.1453 358.978 86.9087 371.971 119.741ZM288.573 63.5574H328.955C343.879 63.5574 353.711 54.252 353.711 40.2061C353.711 25.2823 345.635 17.2059 330.009 17.2059H294.367C290.68 17.2059 288.573 19.1372 288.573 23.351V63.5574Z" fill="#D2EBFF"/>
<path d="M135.576 89.0158V8.7786C135.576 3.86254 139.087 1.58008 144.179 1.58008C148.744 1.58008 152.431 3.86254 152.431 8.7786V88.4891C152.431 114.298 165.072 127.115 188.775 127.115C213.004 127.115 225.645 114.123 225.645 88.3135V8.7786C225.645 3.86254 229.157 1.58008 234.073 1.58008C238.989 1.58008 242.5 3.86254 242.5 8.7786V89.0158C242.5 123.779 223.714 142.39 188.95 142.39C155.065 142.39 135.576 124.306 135.576 89.0158Z" fill="#D2EBFF"/>
<path d="M60.5729 0C91.4739 0 105.344 16.1528 111.665 31.6033C112.192 32.8323 112.367 34.0613 112.367 35.1148C112.367 38.8018 109.558 41.2598 106.924 42.1377C105.52 42.6644 104.115 42.84 102.711 42.84C99.7259 42.84 96.9167 41.611 95.3365 38.2751C90.0693 25.6338 81.2906 15.2749 61.2752 15.2749C34.9392 15.2749 17.5574 36.5193 17.5574 71.1074C17.5574 104.993 34.9392 126.764 61.2752 126.764C82.3441 126.764 92.3518 114.123 96.9167 100.077C98.3213 96.2144 101.482 94.6343 104.818 94.6343C105.871 94.6343 107.1 94.8099 108.329 95.161C111.314 95.8633 114.474 98.4969 114.474 102.184C114.474 103.237 114.299 104.115 113.947 105.169C107.802 122.55 93.0541 142.215 61.802 142.215C24.0536 142.215 0 114.65 0 70.9318C0 28.2674 24.0536 0 60.5729 0Z" fill="black"/>
<path d="M213.721 134.006V161.902C213.721 180.247 228.592 195.119 246.937 195.119C265.282 195.119 280.154 180.247 280.154 161.902V114.45" stroke="#D2EBFF" stroke-width="16"/>
</g>
<defs>
<clipPath id="clip0_228_13">
<rect width="822" height="204" fill="white"/>
</clipPath>
</defs>
</svg>
